<svg version="1.1" id="Layer_1" xmlns="http://www.w3.org/2000/svg" xmlns:xlink="http://www.w3.org/1999/xlink" x="0px" y="0px"
	 width="100%" viewBox="0 0 1024 1024" enable-background="new 0 0 1024 1024" xml:space="preserve">
<path fill="#010000" opacity="1.000000" stroke="none" 
	d="
M521.000000,1025.000000 
	C347.333344,1025.000000 174.166672,1025.000000 1.000000,1025.000000 
	C1.000000,683.666687 1.000000,342.333344 1.000000,1.000000 
	C342.333344,1.000000 683.666687,1.000000 1025.000000,1.000000 
	C1025.000000,342.333344 1025.000000,683.666687 1025.000000,1025.000000 
	C857.166687,1025.000000 689.333313,1025.000000 521.000000,1025.000000 
M442.913391,350.376282 
	C396.769501,419.022705 350.625641,487.669128 303.743286,557.414124 
	C306.942993,557.414124 308.880951,557.414185 310.818939,557.414124 
	C344.482147,557.413147 378.145325,557.408813 411.808533,557.411865 
	C472.302338,557.417419 532.796204,557.399963 593.289795,557.507446 
	C596.694580,557.513489 598.850220,556.466370 600.680664,553.644531 
	C604.759094,547.357483 609.122986,541.256348 613.322083,535.046692 
	C615.981873,531.113403 618.554321,527.121094 621.979248,521.920227 
	C537.898010,521.920227 455.254608,521.920227 370.887421,521.920227 
	C412.412262,460.208710 453.007202,399.879089 493.602142,339.549500 
	C494.086243,339.706573 494.570343,339.863647 495.054443,340.020752 
	C495.054443,376.541931 495.054443,413.063110 495.054443,449.933167 
	C507.372406,449.933167 518.955505,449.933167 530.576050,449.933167 
	C530.576050,373.611664 530.576050,297.525543 530.576050,220.005280 
	C500.929932,264.094574 472.122375,306.936829 442.913391,350.376282 
M685.264954,524.846741 
	C697.601746,506.561493 709.938538,488.276276 723.051636,468.840454 
	C719.197083,468.840454 716.771790,468.840515 714.346497,468.840454 
	C624.179993,468.838104 534.012146,469.066803 443.848633,468.548462 
	C432.249207,468.481750 424.366150,470.711670 419.373688,481.800659 
	C416.612671,487.933319 411.847534,493.158966 408.034607,498.826263 
	C407.143829,500.150208 406.450989,501.607330 404.955383,504.270447 
	C488.820160,504.270447 571.550537,504.270447 655.751282,504.270447 
	C614.321960,565.882446 573.834167,626.094177 533.346375,686.305969 
	C532.749939,686.040344 532.153503,685.774780 531.557129,685.509216 
	C531.425232,683.246460 531.181580,680.983948 531.178284,678.721008 
	C531.130737,646.221069 531.049438,613.720886 531.174377,581.221497 
	C531.190369,577.063293 529.918945,575.720032 525.782166,575.859253 
	C517.624817,576.133606 509.440063,576.198975 501.289398,575.837341 
	C496.515472,575.625549 495.096497,577.090759 495.105438,581.939819 
	C495.240082,654.772705 495.181793,727.605896 495.183868,800.439026 
	C495.183929,801.937378 495.362335,803.435791 495.457550,804.934143 
	C495.899719,805.033630 496.341858,805.133118 496.784027,805.232666 
	C559.485352,711.976257 622.186768,618.719849 685.264954,524.846741 
z"/>
<path fill="#F64403" opacity="1.000000" stroke="none" 
	d="
M443.114075,350.077698 
	C472.122375,306.936829 500.929932,264.094574 530.576050,220.005280 
	C530.576050,297.525543 530.576050,373.611664 530.576050,449.933167 
	C518.955505,449.933167 507.372406,449.933167 495.054443,449.933167 
	C495.054443,413.063110 495.054443,376.541931 495.054443,340.020752 
	C494.570343,339.863647 494.086243,339.706573 493.602142,339.549500 
	C453.007202,399.879089 412.412262,460.208710 370.887421,521.920227 
	C455.254608,521.920227 537.898010,521.920227 621.979248,521.920227 
	C618.554321,527.121094 615.981873,531.113403 613.322083,535.046692 
	C609.122986,541.256348 604.759094,547.357483 600.680664,553.644531 
	C598.850220,556.466370 596.694580,557.513489 593.289795,557.507446 
	C532.796204,557.399963 472.302338,557.417419 411.808533,557.411865 
	C378.145325,557.408813 344.482147,557.413147 310.818939,557.414124 
	C308.880951,557.414185 306.942993,557.414124 303.743286,557.414124 
	C350.625641,487.669128 396.769501,419.022705 443.114075,350.077698 
z"/>
<path fill="#F74504" opacity="1.000000" stroke="none" 
	d="
M685.076538,525.155090 
	C622.186768,618.719849 559.485352,711.976257 496.784027,805.232666 
	C496.341858,805.133118 495.899719,805.033630 495.457550,804.934143 
	C495.362335,803.435791 495.183929,801.937378 495.183868,800.439026 
	C495.181793,727.605896 495.240082,654.772705 495.105438,581.939819 
	C495.096497,577.090759 496.515472,575.625549 501.289398,575.837341 
	C509.440063,576.198975 517.624817,576.133606 525.782166,575.859253 
	C529.918945,575.720032 531.190369,577.063293 531.174377,581.221497 
	C531.049438,613.720886 531.130737,646.221069 531.178284,678.721008 
	C531.181580,680.983948 531.425232,683.246460 531.557129,685.509216 
	C532.153503,685.774780 532.749939,686.040344 533.346375,686.305969 
	C573.834167,626.094177 614.321960,565.882446 655.751282,504.270447 
	C571.550537,504.270447 488.820160,504.270447 404.955383,504.270447 
	C406.450989,501.607330 407.143829,500.150208 408.034607,498.826263 
	C411.847534,493.158966 416.612671,487.933319 419.373688,481.800659 
	C424.366150,470.711670 432.249207,468.481750 443.848633,468.548462 
	C534.012146,469.066803 624.179993,468.838104 714.346497,468.840454 
	C716.771790,468.840515 719.197083,468.840454 723.051636,468.840454 
	C709.938538,488.276276 697.601746,506.561493 685.076538,525.155090 
z"/>
</svg>